<svg width="25" height="25" viewBox="0 0 25 25" fill="none" xmlns="http://www.w3.org/2000/svg">
<circle cx="12.5" cy="12.5" r="12.5" fill="#D6D6D6"/>
<path fill-rule="evenodd" clip-rule="evenodd" d="M16.2082 5.08392C16.734 5.08392 17.259 5.15809 17.7582 5.32559C20.834 6.32559 21.9423 9.70059 21.0165 12.6506C20.4915 14.1581 19.6332 15.5339 18.509 16.6581C16.8998 18.2164 15.134 19.5998 13.2332 20.7914L13.0248 20.9173L12.8082 20.7831C10.9007 19.5998 9.12482 18.2164 7.50065 16.6498C6.38399 15.5256 5.52482 14.1581 4.99149 12.6506C4.04982 9.70059 5.15815 6.32559 8.26732 5.30809C8.50899 5.22475 8.75815 5.16642 9.00815 5.13392H9.10815C9.34232 5.09975 9.57482 5.08392 9.80815 5.08392H9.89982C10.4248 5.09975 10.9332 5.19142 11.4257 5.35892H11.4748C11.5082 5.37475 11.5332 5.39225 11.5498 5.40809C11.734 5.46725 11.9082 5.53392 12.0748 5.62559L12.3915 5.76725C12.468 5.80806 12.5539 5.87042 12.6281 5.92431C12.6751 5.95846 12.7175 5.9892 12.7498 6.00892C12.7634 6.01694 12.7772 6.02501 12.7912 6.03315C12.8626 6.07486 12.9371 6.1183 12.9998 6.16642C13.9257 5.45892 15.0498 5.07559 16.2082 5.08392ZM18.4248 11.0839C18.7665 11.0748 19.0582 10.8006 19.0832 10.4498V10.3506C19.1082 9.18309 18.4007 8.12559 17.3248 7.71725C16.9832 7.59975 16.6082 7.78392 16.4832 8.13392C16.3665 8.48392 16.5498 8.86725 16.8998 8.99142C17.434 9.19142 17.7915 9.71725 17.7915 10.2998V10.3256C17.7757 10.5164 17.8332 10.7006 17.9498 10.8423C18.0665 10.9839 18.2415 11.0664 18.4248 11.0839Z" fill="#888888"/>
</svg>
